<svg xmlns="http://www.w3.org/2000/svg" width="24" height="20" viewBox="0 0 24 20">
  <g id="無料のダウンロードのアイコン素材" transform="translate(0 0)">
    <path id="パス_102" data-name="パス 102" d="M154.974,52.49a.7.7,0,0,0,1.173,0l4.234-5.58a.466.466,0,0,0-.4-.815h-1.621a.8.8,0,0,1-.8-.8V40.7a.947.947,0,0,0-.946-.946h-2.1a.947.947,0,0,0-.946.946v4.6a.8.8,0,0,1-.8.8h-1.621a.466.466,0,0,0-.4.815Z" transform="translate(-143.561 -39.75)" fill="#fff"/>
    <path id="パス_103" data-name="パス 103" d="M20.87,294.16v5.26H3.13v-5.26H0v7.213a1.2,1.2,0,0,0,1.193,1.2H22.807a1.2,1.2,0,0,0,1.193-1.2V294.16Z" transform="translate(0 -282.576)" fill="#fff"/>
  </g>
</svg>
